<svg width="28" height="28" viewBox="0 0 28 28" fill="none" xmlns="http://www.w3.org/2000/svg">
<path d="M2 7.33317C2 6.62593 2.28095 5.94765 2.78105 5.44755C3.28115 4.94746 3.95942 4.6665 4.66667 4.6665H23.3333C24.0406 4.6665 24.7189 4.94746 25.219 5.44755C25.719 5.94765 26 6.62593 26 7.33317V20.6665C26 21.3737 25.719 22.052 25.219 22.5521C24.7189 23.0522 24.0406 23.3332 23.3333 23.3332H4.66667C3.95942 23.3332 3.28115 23.0522 2.78105 22.5521C2.28095 22.052 2 21.3737 2 20.6665V7.33317Z" stroke="#FDFDFD" stroke-width="2" stroke-linecap="round" stroke-linejoin="round"/>
<path d="M2 7.33301L14 15.333L26 7.33301" stroke="#FDFDFD" stroke-width="2" stroke-linecap="round" stroke-linejoin="round"/>
</svg>
